<svg width="1101" height="1064" viewBox="0 0 1101 1064" fill="none" xmlns="http://www.w3.org/2000/svg">
<path fill-rule="evenodd" clip-rule="evenodd" d="M991.492 276.09L560.587 105.328L432.809 208.784L581.587 267.743L439.778 380.324L588.847 439.277L730.556 326.778L862.11 378.911L991.492 276.09Z" fill="white"/>
<path fill-rule="evenodd" clip-rule="evenodd" d="M581.49 214.301L286.307 97.3232L242.025 133.18L536.648 249.935L581.49 214.301Z" fill="white"/>
<path fill-rule="evenodd" clip-rule="evenodd" d="M215.687 202.673L282.156 664.004L434.598 723.079L411.646 563.797L578.907 630.492L555.808 470.959L388.668 404.312L368.378 263.467L215.687 202.673Z" fill="white"/>
<path fill-rule="evenodd" clip-rule="evenodd" d="M365.66 590.838L411.195 906.862L464.027 927.337L418.581 611.908L365.66 590.838Z" fill="white"/>
<path fill-rule="evenodd" clip-rule="evenodd" d="M541.715 917.908L906.149 627.341L881.487 464.807L755.659 565.133L730.211 385.859L604.242 486.436L629.668 665.584L518.406 754.293L541.715 917.908Z" fill="white"/>
<path fill-rule="evenodd" clip-rule="evenodd" d="M801.743 642.276L1051.39 443.232L1042.84 386.901L793.665 585.571L801.743 642.276Z" fill="white"/>
</svg>
